<svg width="258" height="284" viewBox="0 0 258 284" fill="none" xmlns="http://www.w3.org/2000/svg">
<path d="M255.052 249.345C243.015 243.426 230.691 238.493 217.899 234.319L217.87 234.294C217.671 234.228 217.472 234.161 217.273 234.094C214.439 233.193 213.474 237.315 215.702 238.609C223.771 243.277 234.776 246.137 242.846 250.805C201.717 251.069 155.178 251.89 119.139 230.664C82.8109 209.269 64.5952 172.154 75.7484 133.67C110.656 133.469 146.047 115.673 167.472 89.8381C176.177 79.3173 188.559 56.5354 167.807 50.6388C148.24 45.0614 122.229 64.6943 108.941 76.1014C92.4021 90.2883 79.1557 108.915 72.2979 128.973C69.6668 128.943 67.0827 128.803 64.5458 128.552C41.9353 126.303 17.9717 115.209 10.6784 92.7911C1.40985 64.31 22.1169 37.0218 39.0789 15.9045C39.99 14.7664 38.2775 13.3295 37.3369 14.4429C20.8016 33.8654 3.51216 55.7845 4.92478 82.4556C6.09409 104.391 21.765 120.419 42.2283 128.001C51.4487 131.407 61.1019 133.197 70.8185 133.614C64.2901 156.226 66.0951 180.372 80.6002 201.906C114.71 252.483 180.247 257.403 237.336 257.412L224.123 264.276C221.327 265.735 224.139 269.672 226.91 268.242C233.891 264.636 240.869 261.003 247.823 257.399C248.155 257.403 250.449 255.878 250.779 255.855C252.873 254.258 247.823 257.399 250.912 255.785C252.378 255.038 253.842 254.264 255.308 253.516C257.065 252.587 256.573 250.071 255.052 249.345ZM80.6614 120.543C89.3417 101.915 103.452 85.5903 120.22 73.3476C128.721 67.1374 138.183 61.5576 148.109 57.7443C152.036 56.2328 156.463 54.7398 160.722 54.7085C173.61 54.607 176.124 66.0297 171.428 75.7581C156.049 107.692 113.576 127.732 77.2198 128.922C78.2294 126.139 79.349 123.348 80.6614 120.543Z" fill="#E17153"/>
</svg>
